<svg
  width="20"
  height="20"
  viewBox="0 0 20 20"
  fill="none"
  xmlns="http://www.w3.org/2000/svg"
>
  <path d="M19.9952 19.9995V19.9987H20.0003V12.8539C20.0003 9.35853 19.2035 6.66602 14.8762 6.66602C12.796 6.66602 11.4 7.744 10.8301 8.76597H10.7699V6.99233H6.66699V19.9987H10.9392V13.5584C10.9392 11.8627 11.2796 10.223 13.5034 10.223C15.6946 10.223 15.7272 12.1582 15.7272 13.6672V19.9995H19.9952Z" fill="#A3A3A3"/>
  <path d="M0 6.66602H4.76191V19.9995H0V6.66602Z" fill="#A3A3A3"/>
  <path d="M2.38095 0C1.06655 0 0 1.0616 0 2.36988C0 3.67817 1.06655 4.76197 2.38095 4.76197C3.69535 4.76197 4.76191 3.67817 4.76191 2.36988C4.76108 1.0616 3.69453 0 2.38095 0V0Z" fill="#A3A3A3"/>
</svg>
