<svg
  width="21"
  height="15"
  viewBox="0 0 21 15"
  fill="none"
  xmlns="http://www.w3.org/2000/svg"
>
  <path d="M20.5673 2.34714C20.3253 1.42934 19.616 0.705842 18.7165 0.458706C17.0732 0 10.4998 0 10.4998 0C10.4998 0 3.92661 0 2.28329 0.441315C1.40107 0.68819 0.674452 1.42947 0.432459 2.34714C0 4.02348 0 7.5 0 7.5C0 7.5 0 10.994 0.432459 12.6529C0.674708 13.5705 1.38377 14.294 2.28342 14.5412C3.94392 15 10.5 15 10.5 15C10.5 15 17.0732 15 18.7165 14.5587C19.6161 14.3117 20.3253 13.5882 20.5676 12.6705C20.9999 10.994 20.9999 7.51765 20.9999 7.51765C20.9999 7.51765 21.0172 4.02348 20.5673 2.34714ZM8.40694 10.7117V4.28827L13.873 7.5L8.40694 10.7117Z" fill="#A3A3A3"/>
</svg>
