<svg width="156" height="23" viewBox="0 0 156 23" fill="none" xmlns="http://www.w3.org/2000/svg">
    <g clip-path="url(#clip0)">
        <path d="M0 5.56348H4.7523V22.3248H0V5.56348Z" fill="white"/>
        <path d="M25.9272 12.73V22.3248H21.1749V13.4772C21.1749 10.7671 19.9571 9.52182 17.8549 9.52182C15.5701 9.52182 13.9261 10.9539 13.9261 14.0376V22.3248H9.1709V5.56352H13.7086V7.52636C14.9902 6.09425 16.9068 5.31445 19.1336 5.31445C23.0016 5.31445 25.9272 7.62124 25.9272 12.73Z" fill="white"/>
        <path d="M47.1371 12.73V22.3248H42.3848V13.4772C42.3848 10.7671 41.1671 9.52182 39.0649 9.52182C36.7801 9.52182 35.1332 10.9539 35.1332 14.0376V22.3248H30.3809V5.56352H34.9215V7.52636C36.2002 6.09425 38.1197 5.31445 40.3436 5.31445C44.2115 5.31445 47.1371 7.62124 47.1371 12.73Z" fill="white"/>
        <path d="M51.5127 13.9456C51.5127 8.89913 55.3227 5.31738 60.5302 5.31738C65.7377 5.31738 69.5187 8.89913 69.5187 13.9456C69.5187 18.9921 65.7406 22.5738 60.5302 22.5738C55.3227 22.5738 51.5127 18.9921 51.5127 13.9456ZM64.7055 13.9456C64.7055 11.0488 62.9078 9.30237 60.5331 9.30237C58.1555 9.30237 56.3288 11.0458 56.3288 13.9456C56.3288 16.8424 58.1555 18.5888 60.5331 18.5888C62.9078 18.5859 64.7055 16.8424 64.7055 13.9456Z" fill="white"/>
        <path d="M100.283 5.56348L94.3416 22.3248H89.7719L86.0838 11.9175L82.2767 22.3248H77.7071L71.7979 5.56348H76.2747L80.1456 16.9047L84.1672 5.56348H88.1888L92.0887 16.9047L96.0784 5.56348H100.283Z" fill="white"/>
        <path d="M103.913 5.56348H108.665V22.3248H103.913V5.56348Z" fill="white"/>
        <path d="M112.58 20.7681L114.163 17.2783C115.625 18.2449 117.851 18.8972 119.861 18.8972C122.056 18.8972 122.876 18.3042 122.876 17.3702C122.876 14.6276 112.974 17.4325 112.974 10.7345C112.974 7.55601 115.778 5.31445 120.56 5.31445C122.815 5.31445 125.312 5.84223 126.866 6.77621L125.283 10.2334C123.668 9.29944 122.053 8.98812 120.56 8.98812C118.426 8.98812 117.512 9.67304 117.512 10.5448C117.512 13.409 127.414 10.6367 127.414 17.2427C127.414 20.359 124.581 22.5709 119.675 22.5709C116.906 22.5738 114.102 21.797 112.58 20.7681Z" fill="white"/>
        <path d="M147.704 15.3154H135.303C135.761 17.4028 137.498 18.6807 139.994 18.6807C141.731 18.6807 142.981 18.1529 144.106 17.0618L146.634 19.8667C145.112 21.6428 142.827 22.5768 139.872 22.5768C134.207 22.5768 130.519 18.9298 130.519 13.9485C130.519 8.93171 134.268 5.32031 139.263 5.32031C144.077 5.32031 147.794 8.62335 147.794 14.0108C147.797 14.3814 147.736 14.9122 147.704 15.3154ZM135.245 12.4808H143.32C142.984 10.3609 141.432 8.99101 139.298 8.99101C137.132 8.99101 135.578 10.3312 135.245 12.4808Z" fill="white"/>
        <path d="M155.35 2.74394C155.35 4.27389 154.138 5.51327 152.642 5.51327C151.146 5.51327 149.934 4.27389 149.934 2.74394C149.934 1.21399 151.146 -0.0253906 152.642 -0.0253906C154.138 -0.0253906 155.35 1.21399 155.35 2.74394Z" fill="#C63031"/>
    </g>

    <defs>
        <clipPath id="clip0">
        <rect width="156" height="23" fill="white"/>
        </clipPath>
    </defs>
</svg>
