<svg
  width="14"
  height="21"
  viewBox="0 0 14 21"
  fill="none"
  xmlns="http://www.w3.org/2000/svg"
>
  <path d="M3.91216 20.9724C4.11729 21.0814 4.33367 20.8453 4.20809 20.6498C3.52641 19.5889 2.8809 17.8036 3.90935 15.5044C5.62442 11.6703 6.66804 9.68452 6.66804 9.68452C6.66804 9.68452 7.22313 12.0019 8.72786 14.0624C10.1761 16.0455 10.9687 18.5396 9.69084 20.6174C9.57091 20.8124 9.78238 21.0424 9.98617 20.9382C11.568 20.129 13.3423 18.5058 13.5424 15.2758C13.6163 14.2888 13.5056 12.907 12.952 11.1633C12.2403 8.95326 11.3654 7.92203 10.8592 7.47918C10.7078 7.34669 10.4723 7.46411 10.4847 7.66492C10.6322 10.0495 9.7351 10.6546 9.22448 9.29091C9.02055 8.74621 8.90162 7.80409 8.90162 6.65678C8.90162 4.74671 8.34745 2.78046 7.12571 1.18268C6.808 0.767174 6.43625 0.378914 6.00973 0.0478211C5.85532 -0.0720711 5.63149 0.0484387 5.64562 0.243409C5.73944 1.53827 5.65444 5.24927 2.39872 9.68274C-0.553253 13.7953 0.590629 16.9537 0.996527 17.8091C1.77257 19.4479 2.85503 20.4103 3.91216 20.9724Z" fill="#C63031"/>
</svg>
