<svg width="238" height="144" viewBox="0 0 238 144" fill="none" xmlns="http://www.w3.org/2000/svg">
<ellipse cx="225.866" cy="28.8774" rx="3.99763" ry="3.6645" fill="white" fill-opacity="0.06"/>
<ellipse cx="225.866" cy="102.834" rx="3.99763" ry="3.6645" fill="white" fill-opacity="0.06"/>
<ellipse cx="225.866" cy="121.489" rx="3.99763" ry="3.6645" fill="white" fill-opacity="0.06"/>
<ellipse cx="225.866" cy="140.145" rx="3.99763" ry="3.6645" fill="white" fill-opacity="0.06"/>
<ellipse cx="207.543" cy="10.5543" rx="3.6645" ry="3.99763" fill="white" fill-opacity="0.06"/>
<circle cx="207.543" cy="47.5336" r="3.6645" fill="white" fill-opacity="0.06"/>
<circle cx="207.543" cy="66.1879" r="3.6645" fill="white" fill-opacity="0.06"/>
<circle cx="207.543" cy="84.8442" r="3.6645" fill="white" fill-opacity="0.06"/>
<circle cx="207.543" cy="102.834" r="3.6645" fill="white" fill-opacity="0.06"/>
<circle cx="188.888" cy="28.8774" r="3.6645" fill="white" fill-opacity="0.06"/>
<circle cx="188.888" cy="47.5336" r="3.6645" fill="white" fill-opacity="0.06"/>
<circle cx="188.888" cy="84.8442" r="3.6645" fill="white" fill-opacity="0.06"/>
<circle cx="188.888" cy="102.834" r="3.6645" fill="white" fill-opacity="0.06"/>
<circle cx="188.888" cy="121.489" r="3.6645" fill="white" fill-opacity="0.06"/>
<circle cx="170.233" cy="29.5434" r="3.6645" fill="white" fill-opacity="0.06"/>
<ellipse cx="170.233" cy="10.5543" rx="3.6645" ry="3.99763" fill="white" fill-opacity="0.06"/>
<circle cx="170.233" cy="66.1879" r="3.6645" fill="white" fill-opacity="0.06"/>
<circle cx="170.233" cy="102.834" r="3.6645" fill="white" fill-opacity="0.06"/>
<circle cx="151.577" cy="48.1997" r="3.6645" fill="white" fill-opacity="0.06"/>
<circle cx="151.577" cy="84.8442" r="3.6645" fill="white" fill-opacity="0.06"/>
<circle cx="151.577" cy="102.834" r="3.6645" fill="white" fill-opacity="0.06"/>
<circle cx="133.587" cy="29.5434" r="3.6645" fill="white" fill-opacity="0.06"/>
<circle cx="133.587" cy="48.1997" r="3.6645" fill="white" fill-opacity="0.06"/>
<circle cx="133.587" cy="84.8442" r="3.6645" fill="white" fill-opacity="0.06"/>
<circle cx="114.932" cy="47.5336" r="3.6645" fill="white" fill-opacity="0.06"/>
<circle cx="114.932" cy="66.1879" r="3.6645" fill="white" fill-opacity="0.06"/>
<circle cx="114.932" cy="84.8442" r="3.6645" fill="white" fill-opacity="0.06"/>
<circle cx="114.932" cy="102.834" r="3.6645" fill="white" fill-opacity="0.06"/>
<circle cx="96.2768" cy="47.5336" r="3.6645" fill="white" fill-opacity="0.06"/>
<circle cx="96.2768" cy="84.8442" r="3.6645" fill="white" fill-opacity="0.06"/>
<circle cx="96.2768" cy="102.834" r="3.6645" fill="white" fill-opacity="0.06"/>
<circle cx="96.2768" cy="140.145" r="3.6645" fill="white" fill-opacity="0.06"/>
<circle cx="77.6206" cy="28.8774" r="3.6645" fill="white" fill-opacity="0.06"/>
<circle cx="77.6206" cy="66.1879" r="3.6645" fill="white" fill-opacity="0.06"/>
<circle cx="77.6206" cy="102.834" r="3.6645" fill="white" fill-opacity="0.06"/>
<circle cx="77.6206" cy="121.489" r="3.6645" fill="white" fill-opacity="0.06"/>
<ellipse cx="59.2984" cy="28.8774" rx="3.99763" ry="3.6645" fill="white" fill-opacity="0.06"/>
<ellipse cx="59.2984" cy="121.489" rx="3.99763" ry="3.6645" fill="white" fill-opacity="0.06"/>
<ellipse cx="59.2984" cy="140.145" rx="3.99763" ry="3.6645" fill="white" fill-opacity="0.06"/>
<circle cx="40.976" cy="102.834" r="3.6645" fill="white" fill-opacity="0.06"/>
<circle cx="40.976" cy="121.489" r="3.6645" fill="white" fill-opacity="0.06"/>
<circle cx="22.3198" cy="102.834" r="3.6645" fill="white" fill-opacity="0.06"/>
<circle cx="3.6645" cy="84.8442" r="3.6645" fill="white" fill-opacity="0.06"/>
</svg>
