<svg width="917" height="660" viewBox="0 0 917 660" fill="none" xmlns="http://www.w3.org/2000/svg" xmlns:xlink="http://www.w3.org/1999/xlink">
<path d="M477.107 256.073L491.701 256.073L491.701 297.623C491.701 316.35 482.868 322.885 468.754 322.885C465.297 322.885 460.881 322.3 458 321.325L459.632 309.328C461.649 310.011 464.241 310.498 467.121 310.498C473.266 310.498 477.107 307.67 477.107 297.526L477.107 256.073Z" fill="#C5C5C5"/>
<path d="M504.372 306.596C508.212 308.644 514.357 310.692 520.598 310.692C527.319 310.692 530.872 307.864 530.872 303.475C530.872 299.476 527.799 297.038 520.022 294.307C509.268 290.405 502.164 284.358 502.164 274.702C502.164 263.486 511.477 255 526.647 255C534.04 255 539.321 256.463 543.161 258.316L539.897 270.216C537.4 268.948 532.696 267.094 526.455 267.094C520.118 267.094 517.046 270.118 517.046 273.434C517.046 277.628 520.598 279.481 529.048 282.798C540.473 287.089 545.754 293.137 545.754 302.5C545.754 313.521 537.496 322.885 519.734 322.885C512.341 322.885 505.043 320.836 501.396 318.788L504.372 306.596Z" fill="#C5C5C5"/>
<g clip-path="url(#clip0)">
<path d="M424.588 413.168L412.353 413.168L418.473 398.65L424.588 413.168ZM418.473 375.769L451.948 387.545L446.843 431.231L418.473 446.75L390.095 431.246L384.993 387.551L418.473 375.772L418.473 375.769ZM397.583 429.923L405.385 429.923L409.588 419.561L427.356 419.561L431.558 429.923L439.366 429.923L418.47 383.609L397.583 429.923Z" fill="#C5C5C5"/>
</g>
<g clip-path="url(#clip1)">
<path d="M866.332 625.426L854.097 625.426L860.218 610.908L866.332 625.426ZM860.218 588.026L893.692 599.803L888.587 643.489L860.218 659.007L831.839 643.504L826.737 599.809L860.218 588.029L860.218 588.026ZM839.328 642.181L847.129 642.181L851.332 631.819L869.1 631.819L873.303 642.181L881.11 642.181L860.215 595.867L839.328 642.181Z" fill="#C5C5C5"/>
</g>
<path d="M349.774 303.416C348.871 302.687 347.728 302.323 346.571 302.397L338.664 302.397L338.664 310.489L346.7 310.489C347.822 310.522 348.917 310.139 349.774 309.415C350.18 309.024 350.499 308.551 350.71 308.027C350.92 307.504 351.018 306.942 350.996 306.378C351.016 305.826 350.917 305.276 350.706 304.765C350.495 304.254 350.177 303.794 349.774 303.416ZM348.663 298.194C349.036 297.862 349.33 297.449 349.522 296.988C349.714 296.526 349.8 296.027 349.774 295.528C349.828 295.024 349.768 294.514 349.598 294.036C349.429 293.559 349.153 293.126 348.792 292.769C348 292.206 347.042 291.925 346.071 291.973L338.664 291.973L338.664 299.12L346.071 299.12C347.041 299.139 347.987 298.811 348.737 298.194L348.663 298.194ZM359.032 278.604L329.406 278.604C327.442 278.604 325.558 279.385 324.169 280.774C322.78 282.163 322 284.047 322 286.011L322 315.636C322 317.6 322.78 319.484 324.169 320.873C325.558 322.262 327.442 323.043 329.406 323.043L359.032 323.043C360.996 323.043 362.88 322.262 364.269 320.873C365.658 319.484 366.438 317.6 366.438 315.636L366.438 286.011C366.438 284.047 365.658 282.163 364.269 280.774C362.88 279.385 360.996 278.604 359.032 278.604ZM354.977 309.804C354.619 310.705 354.032 311.496 353.273 312.1C352.392 312.801 351.378 313.318 350.292 313.618C348.892 314.03 347.437 314.224 345.978 314.192L334.072 314.192L334.072 288.27L346.663 288.27C348.64 288.171 350.594 288.731 352.218 289.862C352.936 290.435 353.504 291.175 353.872 292.017C354.24 292.859 354.397 293.778 354.329 294.695C354.397 295.873 354.1 297.044 353.477 298.046C352.788 299.014 351.838 299.766 350.737 300.212C351.472 300.326 352.178 300.585 352.814 300.972C353.449 301.36 354.002 301.869 354.44 302.471C355.299 303.777 355.733 305.316 355.68 306.878C355.653 307.892 355.413 308.888 354.977 309.804Z" fill="#C5C5C5"/>
<path d="M257.579 387.705C253.295 387.705 249.822 384.227 249.822 379.935C249.822 375.644 253.295 372.165 257.579 372.165C261.863 372.165 265.336 375.644 265.336 379.935C265.336 384.227 261.863 387.705 257.579 387.705Z" fill="#C5C5C5"/>
<path d="M257.579 397.736C268.473 397.736 277.992 396.451 285.115 394.005C289.735 392.427 293.66 390.321 296.457 387.922C299.424 385.384 301 382.613 301 379.935C301 374.797 295.375 369.766 285.934 366.485C278.208 363.791 268.133 362.29 257.595 362.29C247.242 362.29 237.306 363.745 229.626 366.407C225.129 367.955 221.344 369.967 218.655 372.196C215.735 374.642 214.189 377.32 214.189 379.935C214.189 385.276 220.478 390.677 230.615 394.036C237.785 396.42 247.365 397.736 257.579 397.736ZM257.579 366.005C267.577 366.005 277.466 367.46 284.698 369.983C293.382 373.017 297.276 377.165 297.276 379.935C297.276 382.814 293.088 387.35 283.91 390.492C277.173 392.798 268.056 394.021 257.579 394.021C247.752 394.021 238.588 392.783 231.774 390.507C222.24 387.334 217.882 382.799 217.882 379.935C217.882 378.465 218.995 376.731 221.019 375.044C223.352 373.094 226.752 371.314 230.816 369.905C238.125 367.398 247.628 366.005 257.579 366.005Z" fill="#C5C5C5"/>
<path d="M275.179 418.663C276.755 418.663 278.145 418.323 279.32 417.642C283.755 415.072 285.3 407.674 283.43 397.845C281.9 389.781 278.161 380.308 272.892 371.16C267.715 362.182 261.503 354.288 255.369 348.948C251.784 345.822 248.153 343.531 244.877 342.324C241.307 341.008 238.217 341.008 235.961 342.308C231.341 344.97 229.811 353.143 231.974 363.607C233.504 371.036 237.151 379.998 242.25 388.867C247.689 398.309 253.561 405.925 259.232 410.893C262.91 414.113 266.695 416.465 270.157 417.688C271.965 418.338 273.664 418.663 275.179 418.663ZM271.3 372.089L269.693 373.017C274.684 381.685 278.377 390.988 279.799 398.541C281.514 407.596 279.861 413.045 277.481 414.422C276.894 414.763 276.121 414.948 275.179 414.948C272.104 414.948 267.267 412.998 261.673 408.107C256.311 403.417 250.702 396.111 245.464 387.025C240.55 378.497 237.058 369.922 235.605 362.879C233.581 353.019 235.327 346.983 237.815 345.543C239.082 344.816 241.137 344.909 243.61 345.822C246.468 346.874 249.698 348.933 252.943 351.766C258.768 356.842 264.717 364.396 269.693 373.033L271.3 372.089Z" fill="#C5C5C5"/>
<path d="M239.979 418.709C244.182 418.709 249.513 416.171 255.076 411.372C261.288 406.017 267.608 398.045 272.892 388.898C278.084 379.92 281.793 370.587 283.354 362.584C284.265 357.91 284.435 353.622 283.848 350.171C283.199 346.409 281.669 343.732 279.398 342.416C274.793 339.738 266.959 342.493 258.985 349.598C253.33 354.628 247.396 362.275 242.281 371.128C236.827 380.57 233.165 389.47 231.712 396.869C230.77 401.667 230.615 406.125 231.279 409.747C231.99 413.601 233.597 416.341 235.915 417.688C237.074 418.369 238.449 418.709 239.979 418.709ZM269.678 387.04C264.672 395.708 258.46 403.556 252.65 408.555C245.681 414.561 240.149 415.861 237.754 414.468C235.266 413.029 233.443 407.131 235.328 397.597C236.719 390.6 240.226 382.087 245.48 373.001C250.409 364.473 256.08 357.151 261.442 352.384C268.952 345.697 275.04 344.196 277.528 345.635C278.795 346.363 279.738 348.205 280.186 350.805C280.696 353.808 280.541 357.647 279.707 361.872C278.223 369.472 274.669 378.403 269.678 387.04Z" fill="#C5C5C5"/>
<path d="M108.067 375.927L111.464 375.927L111.464 379.113L115.18 379.113L115.18 369.6L111.464 369.6L111.464 372.743L108.067 372.743L108.067 369.6L104.353 369.6L104.353 379.113L108.067 379.113L108.067 375.927Z" fill="#C5C5C5"/>
<path d="M120.063 379.113L123.777 379.113L123.777 372.756L127.046 372.756L127.046 369.6L116.795 369.6L116.795 372.756L120.063 372.756L120.063 379.113Z" fill="#C5C5C5"/>
<path d="M132.308 374.4L134.867 377.78L134.929 377.78L137.483 374.4L137.483 379.113L141.184 379.113L141.184 369.6L137.31 369.6L134.929 372.947L132.548 369.6L128.676 369.6L128.676 379.113L132.308 379.113L132.308 374.4Z" fill="#C5C5C5"/>
<path d="M151.969 375.97L146.746 375.97L146.746 369.6L143.031 369.6L143.031 379.113L151.969 379.113L151.969 375.97Z" fill="#C5C5C5"/>
<path d="M99 383.287L104.312 434.293L128.159 439.959L152.024 434.296L157.347 383.287L99 383.287ZM145.821 399.967L128.172 399.967L117.856 399.967L118.524 406.374L128.172 406.374L145.157 406.374L143.154 425.585L128.172 429.138L128.162 429.141L113.191 425.585L112.147 415.537L119.481 415.537L120.025 420.749L128.164 422.632L128.174 422.63L136.322 420.746L137.171 412.633L128.174 412.633L111.843 412.633L109.869 393.715L128.172 393.715L146.474 393.715L145.821 399.967Z" fill="#C5C5C5"/>
<path d="M474.639 526.22C471.94 526.22 469.751 524.028 469.751 521.324C469.751 518.62 471.94 516.428 474.639 516.428C477.339 516.428 479.527 518.62 479.527 521.324C479.527 524.028 477.339 526.22 474.639 526.22Z" fill="#C5C5C5"/>
<path d="M474.639 532.541C481.504 532.541 487.502 531.731 491.99 530.19C494.902 529.195 497.375 527.869 499.137 526.357C501.007 524.757 502 523.011 502 521.324C502 518.086 498.456 514.916 492.506 512.848C487.638 511.151 481.289 510.205 474.649 510.205C468.125 510.205 461.864 511.122 457.025 512.8C454.191 513.775 451.806 515.043 450.112 516.447C448.271 517.988 447.298 519.676 447.298 521.324C447.298 524.689 451.261 528.093 457.648 530.209C462.166 531.712 468.203 532.541 474.639 532.541ZM474.639 512.546C480.939 512.546 487.171 513.463 491.727 515.053C497.2 516.964 499.653 519.578 499.653 521.324C499.653 523.138 497.015 525.996 491.231 527.976C486.986 529.429 481.241 530.2 474.639 530.2C468.446 530.2 462.672 529.419 458.378 527.986C452.371 525.986 449.625 523.128 449.625 521.324C449.625 520.397 450.326 519.305 451.601 518.242C453.072 517.013 455.214 515.891 457.775 515.004C462.38 513.424 468.368 512.546 474.639 512.546Z" fill="#C5C5C5"/>
<path d="M485.73 545.727C486.723 545.727 487.599 545.513 488.339 545.083C491.134 543.464 492.107 538.802 490.929 532.609C489.965 527.527 487.609 521.558 484.288 515.794C481.027 510.137 477.112 505.162 473.247 501.798C470.988 499.827 468.7 498.384 466.635 497.623C464.386 496.794 462.439 496.794 461.017 497.613C458.106 499.291 457.142 504.441 458.505 511.034C459.469 515.716 461.767 521.363 464.98 526.952C468.407 532.901 472.108 537.7 475.681 540.831C477.998 542.86 480.384 544.342 482.565 545.113C483.704 545.522 484.775 545.727 485.73 545.727ZM483.286 516.379L482.273 516.964C485.418 522.426 487.745 528.288 488.641 533.048C489.722 538.753 488.68 542.187 487.18 543.055C486.81 543.269 486.324 543.386 485.73 543.386C483.792 543.386 480.744 542.157 477.219 539.075C473.841 536.12 470.306 531.516 467.005 525.791C463.909 520.417 461.708 515.013 460.793 510.576C459.518 504.363 460.618 500.559 462.186 499.652C462.984 499.193 464.279 499.252 465.837 499.827C467.638 500.491 469.673 501.788 471.718 503.573C475.389 506.772 479.138 511.531 482.273 516.974L483.286 516.379Z" fill="#C5C5C5"/>
<path d="M463.549 545.756C466.198 545.756 469.557 544.157 473.062 541.133C476.976 537.758 480.959 532.735 484.289 526.971C487.561 521.314 489.897 515.433 490.881 510.39C491.455 507.444 491.562 504.743 491.192 502.568C490.783 500.198 489.82 498.51 488.388 497.681C485.487 495.994 480.55 497.73 475.526 502.207C471.962 505.377 468.223 510.195 465 515.774C461.563 521.724 459.255 527.332 458.34 531.994C457.746 535.018 457.649 537.827 458.067 540.109C458.515 542.538 459.528 544.264 460.988 545.112C461.719 545.542 462.585 545.756 463.549 545.756ZM482.264 525.801C479.109 531.262 475.195 536.207 471.533 539.358C467.142 543.142 463.656 543.962 462.147 543.084C460.579 542.177 459.43 538.461 460.618 532.452C461.495 528.044 463.705 522.679 467.016 516.954C470.122 511.58 473.695 506.967 477.074 503.962C481.806 499.749 485.642 498.803 487.21 499.71C488.008 500.168 488.602 501.329 488.885 502.968C489.206 504.86 489.109 507.279 488.583 509.941C487.648 514.73 485.409 520.358 482.264 525.801Z" fill="#C5C5C5"/>
<path d="M717.806 194.831L729.115 194.831L729.115 227.028C729.115 241.539 722.27 246.603 711.333 246.603C708.655 246.603 705.232 246.15 703 245.394L704.265 236.098C705.827 236.627 707.836 237.005 710.068 237.005C714.83 237.005 717.806 234.813 717.806 226.953L717.806 194.831Z" fill="#C5C5C5"/>
<path d="M738.933 233.982C741.909 235.569 746.671 237.156 751.507 237.156C756.715 237.156 759.468 234.964 759.468 231.563C759.468 228.464 757.087 226.575 751.061 224.459C742.728 221.435 737.222 216.75 737.222 209.267C737.222 200.576 744.439 194 756.194 194C761.923 194 766.015 195.134 768.991 196.57L766.461 205.79C764.527 204.808 760.881 203.372 756.046 203.372C751.135 203.372 748.754 205.715 748.754 208.285C748.754 211.535 751.507 212.971 758.054 215.54C766.908 218.866 771 223.552 771 230.808C771 239.348 764.601 246.604 750.837 246.604C745.108 246.604 739.454 245.016 736.627 243.429L738.933 233.982Z" fill="#C5C5C5"/>
<g clip-path="url(#clip2)">
<path d="M752.644 110.426L740.408 110.426L746.529 95.9083L752.644 110.426ZM746.529 73.0264L780.004 84.8033L774.898 128.489L746.529 144.007L718.151 128.504L713.048 84.8092L746.529 73.0293L746.529 73.0264ZM725.639 127.181L733.441 127.181L737.644 116.819L755.411 116.819L759.614 127.181L767.422 127.181L746.526 80.8668L725.639 127.181Z" fill="#C5C5C5"/>
</g>
<path d="M748 414.733C746.7 413.684 745.054 413.16 743.387 413.267L732 413.267L732 424.92L743.573 424.92C745.189 424.967 746.765 424.417 748 423.373C748.585 422.81 749.045 422.129 749.348 421.375C749.651 420.621 749.792 419.812 749.76 419C749.788 418.204 749.646 417.412 749.342 416.676C749.039 415.94 748.581 415.278 748 414.733ZM746.4 407.213C746.938 406.734 747.361 406.14 747.638 405.476C747.915 404.811 748.038 404.092 748 403.373C748.078 402.647 747.992 401.913 747.747 401.225C747.503 400.537 747.106 399.913 746.587 399.4C745.446 398.589 744.065 398.185 742.667 398.253L732 398.253L732 408.547L742.667 408.547C744.065 408.574 745.426 408.101 746.507 407.213L746.4 407.213ZM761.333 379L718.667 379C715.838 379 713.125 380.124 711.124 382.124C709.124 384.125 708 386.838 708 389.667L708 432.333C708 435.162 709.124 437.875 711.124 439.876C713.125 441.876 715.838 443 718.667 443L761.333 443C764.162 443 766.875 441.876 768.876 439.876C770.876 437.875 772 435.162 772 432.333L772 389.667C772 386.838 770.876 384.125 768.876 382.124C766.875 380.124 764.162 379 761.333 379ZM755.493 423.933C754.978 425.231 754.132 426.371 753.04 427.24C751.771 428.25 750.31 428.994 748.747 429.427C746.731 430.021 744.635 430.3 742.533 430.253L725.387 430.253L725.387 392.92L743.52 392.92C746.367 392.778 749.181 393.585 751.52 395.213C752.555 396.039 753.373 397.104 753.902 398.317C754.432 399.53 754.658 400.853 754.56 402.173C754.659 403.87 754.23 405.556 753.333 407C752.342 408.395 750.972 409.477 749.387 410.12C750.446 410.284 751.463 410.656 752.378 411.214C753.293 411.773 754.089 412.506 754.72 413.373C755.958 415.253 756.582 417.471 756.507 419.72C756.467 421.18 756.122 422.615 755.493 423.933Z" fill="#C5C5C5"/>
<path d="M829.731 323.039C826.499 323.039 823.879 320.415 823.879 317.178C823.879 313.941 826.499 311.316 829.731 311.316C832.962 311.316 835.582 313.941 835.582 317.178C835.582 320.415 832.962 323.039 829.731 323.039Z" fill="#C5C5C5"/>
<path d="M829.73 330.605C837.948 330.605 845.128 329.636 850.502 327.791C853.987 326.6 856.948 325.012 859.057 323.203C861.295 321.288 862.484 319.198 862.484 317.178C862.484 313.301 858.242 309.507 851.12 307.031C845.291 305 837.692 303.867 829.742 303.867C821.932 303.867 814.437 304.965 808.644 306.973C805.252 308.141 802.397 309.658 800.368 311.34C798.165 313.185 797 315.205 797 317.178C797 321.206 801.744 325.281 809.39 327.815C814.799 329.613 822.026 330.605 829.73 330.605ZM829.73 306.669C837.272 306.669 844.732 307.767 850.187 309.67C856.738 311.959 859.675 315.088 859.675 317.178C859.675 319.35 856.516 322.771 849.593 325.141C844.51 326.881 837.633 327.803 829.73 327.803C822.317 327.803 815.405 326.869 810.264 325.153C803.073 322.759 799.786 319.338 799.786 317.178C799.786 316.069 800.625 314.761 802.152 313.488C803.912 312.017 806.476 310.674 809.542 309.612C815.055 307.72 822.224 306.669 829.73 306.669Z" fill="#C5C5C5"/>
<path d="M843.006 346.391C844.195 346.391 845.244 346.134 846.13 345.621C849.476 343.683 850.641 338.101 849.231 330.687C848.077 324.604 845.256 317.458 841.281 310.558C837.376 303.786 832.691 297.831 828.063 293.803C825.359 291.444 822.62 289.716 820.149 288.805C817.456 287.813 815.125 287.813 813.423 288.794C809.938 290.802 808.784 296.967 810.416 304.86C811.57 310.464 814.32 317.225 818.167 323.915C822.27 331.037 826.699 336.782 830.977 340.53C833.751 342.959 836.607 344.733 839.218 345.656C840.582 346.146 841.864 346.391 843.006 346.391ZM840.081 311.258L838.868 311.959C842.633 318.497 845.419 325.515 846.492 331.213C847.785 338.043 846.538 342.153 844.743 343.192C844.3 343.449 843.717 343.589 843.006 343.589C840.687 343.589 837.038 342.118 832.819 338.428C828.774 334.89 824.543 329.379 820.591 322.526C816.885 316.092 814.25 309.624 813.155 304.311C811.628 296.873 812.945 292.32 814.822 291.234C815.777 290.685 817.328 290.755 819.193 291.444C821.349 292.238 823.785 293.791 826.233 295.928C830.627 299.757 835.115 305.455 838.868 311.971L840.081 311.258Z" fill="#C5C5C5"/>
<path d="M816.453 346.427C819.624 346.427 823.645 344.512 827.842 340.892C832.527 336.852 837.295 330.839 841.281 323.939C845.198 317.167 847.995 310.126 849.172 304.089C849.86 300.563 849.988 297.329 849.545 294.725C849.056 291.888 847.902 289.868 846.188 288.876C842.715 286.856 836.805 288.934 830.791 294.293C826.524 298.088 822.048 303.856 818.19 310.535C814.076 317.657 811.313 324.371 810.217 329.952C809.506 333.571 809.39 336.934 809.891 339.666C810.427 342.573 811.639 344.64 813.388 345.656C814.262 346.17 815.299 346.427 816.453 346.427ZM838.857 322.537C835.08 329.076 830.394 334.996 826.011 338.767C820.755 343.297 816.582 344.278 814.775 343.227C812.898 342.141 811.523 337.693 812.945 330.501C813.994 325.223 816.64 318.801 820.603 311.947C824.321 305.514 828.599 299.991 832.644 296.395C838.309 291.351 842.901 290.218 844.778 291.304C845.734 291.853 846.445 293.242 846.783 295.204C847.168 297.469 847.051 300.365 846.422 303.552C845.303 309.285 842.622 316.022 838.857 322.537Z" fill="#C5C5C5"/>
<path d="M627.846 280.475L630.785 280.475L630.785 283.232L634.001 283.232L634.001 275L630.785 275L630.785 277.72L627.846 277.72L627.846 275L624.632 275L624.632 283.232L627.846 283.232L627.846 280.475Z" fill="#C5C5C5"/>
<path d="M638.225 283.232L641.439 283.232L641.439 277.731L644.267 277.731L644.267 275L635.397 275L635.397 277.731L638.225 277.731L638.225 283.232Z" fill="#C5C5C5"/>
<path d="M648.821 279.154L651.035 282.079L651.088 282.079L653.298 279.154L653.298 283.232L656.501 283.232L656.501 275L653.149 275L651.088 277.897L649.028 275L645.678 275L645.678 283.232L648.821 283.232L648.821 279.154Z" fill="#C5C5C5"/>
<path d="M665.833 280.513L661.314 280.513L661.314 275L658.1 275L658.1 283.232L665.833 283.232L665.833 280.513Z" fill="#C5C5C5"/>
<path d="M620 286.844L624.597 330.979L645.231 335.882L665.882 330.982L670.487 286.844L620 286.844ZM660.515 301.277L645.243 301.277L636.316 301.277L636.894 306.821L645.243 306.821L659.94 306.821L658.206 323.444L645.243 326.519L645.234 326.521L632.28 323.444L631.376 314.749L637.722 314.749L638.193 319.26L645.236 320.889L645.244 320.887L652.295 319.257L653.029 312.237L645.244 312.237L631.113 312.237L629.405 295.867L645.243 295.867L661.079 295.867L660.515 301.277Z" fill="#C5C5C5"/>
<g clip-path="url(#clip3)">
<path d="M323.143 541C325.751 541 328.025 538.726 328.025 536.118V524.715H331.285C333.241 524.715 334.545 523.411 334.545 521.455V488.889H295.456V521.456C295.456 523.411 296.76 524.715 298.716 524.715H301.976V536.118C301.976 538.726 304.25 541 306.859 541C309.466 541 311.74 538.726 311.74 536.118V524.715H318.261V536.118C318.26 538.726 320.535 541 323.143 541Z" fill="#C5C5C5"/>
<path d="M342.687 521.456C345.295 521.456 347.569 519.181 347.569 516.573V493.769C347.569 491.175 345.295 488.889 342.687 488.889C340.079 488.889 337.805 491.175 337.805 493.769V516.573C337.805 519.181 340.078 521.456 342.687 521.456Z" fill="#C5C5C5"/>
<path d="M287.313 521.456C289.922 521.456 292.196 519.181 292.196 516.573V493.769C292.196 491.175 289.922 488.889 287.313 488.889C284.705 488.889 282.432 491.175 282.432 493.769V516.573C282.432 519.181 284.705 521.456 287.313 521.456Z" fill="#C5C5C5"/>
<path d="M330.633 463.492C329.981 462.836 329.011 462.836 328.359 463.492L323.986 467.85L323.785 468.051C321.192 466.753 318.285 466.105 315.048 466.098C315.032 466.098 315.017 466.098 315.001 466.098H315C314.984 466.098 314.969 466.098 314.952 466.098C311.716 466.105 308.809 466.753 306.216 468.051L306.014 467.85L301.642 463.492C300.99 462.836 300.02 462.836 299.368 463.492C298.716 464.144 298.716 465.112 299.368 465.764L303.598 469.994C302.235 470.904 300.999 472.018 299.925 473.291C297.352 476.341 295.711 480.31 295.485 484.61C295.483 484.655 295.478 484.699 295.476 484.744C295.463 485.037 295.456 485.331 295.456 485.627H334.545C334.545 485.331 334.538 485.037 334.525 484.744C334.523 484.699 334.518 484.655 334.516 484.61C334.29 480.31 332.649 476.341 330.076 473.291C329.002 472.018 327.765 470.904 326.403 469.994L330.633 465.764C331.285 465.112 331.285 464.144 330.633 463.492ZM306.852 479.935C305.504 479.935 304.41 478.841 304.41 477.492C304.41 476.144 305.504 475.05 306.852 475.05C308.201 475.05 309.295 476.144 309.295 477.492C309.295 478.841 308.201 479.935 306.852 479.935ZM323.149 479.935C321.8 479.935 320.706 478.841 320.706 477.492C320.706 476.144 321.8 475.05 323.149 475.05C324.497 475.05 325.591 476.144 325.591 477.492C325.591 478.841 324.497 479.935 323.149 479.935Z" fill="#C5C5C5"/>
</g>
<g clip-path="url(#clip4)">
<path d="M883.143 77.9998C885.751 77.9998 888.025 75.7255 888.025 73.1175V61.7152H891.285C893.241 61.7152 894.545 60.411 894.545 58.4552V25.8887H855.456V58.4555C855.456 60.4115 856.76 61.7155 858.716 61.7155H861.976V73.1178C861.976 75.7258 864.25 78.0001 866.859 78.0001C869.466 78.0001 871.74 75.7258 871.74 73.1178V61.7155H878.261V73.1178C878.26 75.7255 880.535 77.9998 883.143 77.9998Z" fill="#C5C5C5"/>
<path d="M902.687 58.4555C905.295 58.4555 907.569 56.1814 907.569 53.5732V30.7689C907.569 28.1747 905.295 25.8887 902.687 25.8887C900.079 25.8887 897.805 28.1747 897.805 30.7689V53.5732C897.805 56.1812 900.078 58.4555 902.687 58.4555Z" fill="#C5C5C5"/>
<path d="M847.313 58.4555C849.922 58.4555 852.196 56.1814 852.196 53.5732V30.7689C852.196 28.1747 849.922 25.8887 847.313 25.8887C844.705 25.8887 842.432 28.1747 842.432 30.7689V53.5732C842.432 56.1812 844.705 58.4555 847.313 58.4555Z" fill="#C5C5C5"/>
<path d="M890.633 0.491926C889.981 -0.163975 889.011 -0.163975 888.359 0.491926L883.986 4.84977L883.785 5.05123C881.192 3.75296 878.285 3.1046 875.048 3.09836C875.032 3.09836 875.017 3.09784 875.001 3.09784H875C874.984 3.09784 874.969 3.09836 874.952 3.09836C871.716 3.1046 868.809 3.75296 866.216 5.05123L866.014 4.84977L861.642 0.491926C860.99 -0.163975 860.02 -0.163975 859.368 0.491926C858.716 1.14418 858.716 2.11216 859.368 2.7639L863.598 6.9942C862.235 7.90414 860.999 9.01761 859.925 10.2912C857.352 13.3408 855.711 17.3098 855.485 21.6101C855.483 21.6549 855.478 21.6992 855.476 21.7439C855.463 22.0367 855.456 22.3311 855.456 22.6265H894.545C894.545 22.3311 894.538 22.0367 894.525 21.7439C894.523 21.6992 894.518 21.6549 894.516 21.6101C894.29 17.3098 892.649 13.3406 890.076 10.2914C889.002 9.01787 887.765 7.9044 886.403 6.99446L890.633 2.76416C891.285 2.11216 891.285 1.14418 890.633 0.491926ZM866.852 16.9345C865.504 16.9345 864.41 15.8411 864.41 14.4923C864.41 13.1435 865.504 12.0501 866.852 12.0501C868.201 12.0501 869.295 13.1435 869.295 14.4923C869.295 15.8411 868.201 16.9345 866.852 16.9345ZM883.149 16.9345C881.8 16.9345 880.706 15.8411 880.706 14.4923C880.706 13.1435 881.8 12.0501 883.149 12.0501C884.497 12.0501 885.591 13.1435 885.591 14.4923C885.591 15.8411 884.497 16.9345 883.149 16.9345Z" fill="#C5C5C5"/>
</g>
<path d="M171.157 301C161.632 300.945 153.753 281.501 153.753 271.599C153.753 255.424 165.887 251.882 170.564 251.882C172.671 251.882 174.922 252.71 176.907 253.442C178.295 253.953 179.73 254.481 180.528 254.481C181.006 254.481 182.132 254.032 183.127 253.638C185.247 252.794 187.886 251.745 190.958 251.745C190.964 251.745 190.971 251.745 190.976 251.745C193.271 251.745 200.227 252.249 204.409 258.529L205.389 260.001L203.979 261.065C201.965 262.585 198.29 265.357 198.29 270.848C198.29 277.352 202.452 279.854 204.451 281.057C205.334 281.588 206.247 282.135 206.247 283.333C206.247 284.114 200.007 300.903 190.945 300.903C188.728 300.903 187.16 300.237 185.778 299.649C184.379 299.054 183.172 298.541 181.178 298.541C180.168 298.541 178.889 299.019 177.536 299.526C175.687 300.217 173.594 301 171.219 301H171.157Z" fill="#C5C5C5"/>
<path d="M191.918 237C192.154 245.509 186.068 251.413 179.99 251.043C178.988 244.252 186.068 237 191.918 237Z" fill="#C5C5C5"/>
<path d="M591.993 397.899C587.265 401.214 581.907 404.971 579.036 411.187C574.05 422.031 589.24 433.861 589.889 434.359C590.04 434.475 590.221 434.532 590.401 434.532C590.592 434.532 590.783 434.467 590.939 434.337C591.241 434.086 591.326 433.659 591.145 433.311C591.09 433.205 585.638 422.647 585.84 415.072C585.912 412.434 589.615 409.441 593.536 406.273C597.127 403.37 601.197 400.081 603.579 396.233C608.807 387.763 602.996 379.435 602.937 379.352C602.706 379.029 602.28 378.911 601.916 379.071C601.552 379.231 601.35 379.623 601.433 380.011C601.445 380.066 602.575 385.573 599.431 391.247C598.135 393.592 595.289 395.588 591.993 397.899Z" fill="#C5C5C5"/>
<path d="M611.91 401.634C612.244 401.383 612.342 400.927 612.14 400.562C611.938 400.198 611.498 400.037 611.108 400.185C610.305 400.489 591.441 407.738 591.441 416.496C591.441 422.534 594.028 425.724 595.917 428.053C596.658 428.966 597.298 429.755 597.509 430.429C598.102 432.37 596.696 435.878 596.105 437.066C595.935 437.407 596.018 437.821 596.308 438.071C596.465 438.205 596.66 438.274 596.856 438.274C597.023 438.274 597.19 438.224 597.335 438.124C597.659 437.899 605.261 432.54 603.898 426.084C603.39 423.63 602.18 421.837 601.113 420.255C599.46 417.804 598.265 416.033 600.077 412.763C602.201 408.949 611.813 401.706 611.91 401.634Z" fill="#C5C5C5"/>
<path d="M562.809 438.414C562.486 439.379 562.638 440.337 563.25 441.184C565.295 444.014 572.538 445.573 583.646 445.573C583.647 445.573 583.647 445.573 583.647 445.573C585.152 445.573 586.741 445.543 588.369 445.485C606.129 444.851 612.716 439.335 612.987 439.101C613.284 438.845 613.363 438.42 613.179 438.075C612.994 437.731 612.597 437.558 612.218 437.662C605.963 439.365 594.284 439.969 586.183 439.969C577.118 439.969 572.502 439.318 571.372 438.838C571.952 438.044 575.528 436.626 579.961 435.757C580.384 435.674 580.676 435.284 580.634 434.856C580.592 434.427 580.231 434.101 579.799 434.101C577.201 434.101 564.171 434.309 562.809 438.414Z" fill="#C5C5C5"/>
<path d="M622.237 432.732C618.573 432.732 615.1 434.562 614.954 434.64C614.615 434.821 614.443 435.209 614.536 435.58C614.629 435.952 614.964 436.213 615.349 436.213C615.427 436.214 623.162 436.277 623.863 440.683C624.484 444.484 616.544 450.644 613.432 452.697C613.096 452.918 612.965 453.347 613.121 453.717C613.254 454.033 613.562 454.23 613.894 454.23C613.952 454.23 614.011 454.224 614.069 454.211C614.808 454.054 632.135 450.248 630.303 440.19C629.185 434.026 625.299 432.732 622.237 432.732Z" fill="#C5C5C5"/>
<path d="M610.354 451.467C610.414 451.144 610.28 450.816 610.01 450.628L605.856 447.727C605.653 447.586 605.397 447.541 605.16 447.604C605.116 447.616 600.772 448.754 594.464 449.452C591.96 449.732 589.156 449.88 586.354 449.88C580.048 449.88 575.925 449.141 575.325 448.599C575.245 448.447 575.27 448.378 575.284 448.34C575.393 448.037 575.978 447.677 576.355 447.535C576.771 447.382 576.996 446.931 576.866 446.508C576.737 446.084 576.299 445.835 575.867 445.938C571.7 446.941 569.662 448.343 569.81 450.106C570.074 453.23 577.334 454.834 583.471 455.259C584.354 455.319 585.309 455.35 586.308 455.35C586.309 455.35 586.309 455.35 586.31 455.35C596.515 455.35 609.599 452.157 609.73 452.125C610.049 452.046 610.293 451.789 610.354 451.467Z" fill="#C5C5C5"/>
<path d="M579.032 458.174C579.346 457.969 579.486 457.582 579.374 457.225C579.263 456.868 578.928 456.633 578.551 456.638C577.993 456.652 573.086 456.873 572.743 459.988C572.639 460.918 572.906 461.769 573.538 462.515C575.299 464.596 580.055 465.833 588.073 466.297C589.022 466.353 589.985 466.382 590.938 466.382C601.132 466.382 607.997 463.2 608.285 463.064C608.564 462.933 608.747 462.66 608.764 462.353C608.78 462.046 608.627 461.755 608.364 461.595L603.113 458.4C602.931 458.289 602.713 458.252 602.505 458.295C602.472 458.302 599.138 458.991 594.107 459.672C593.155 459.801 591.963 459.866 590.564 459.866C585.538 459.866 579.949 459.048 578.877 458.512C578.861 458.411 578.881 458.284 579.032 458.174Z" fill="#C5C5C5"/>
<path d="M586.186 475.989C609.537 475.97 622.07 471.83 624.484 469.225C625.338 468.303 625.431 467.43 625.358 466.86C625.178 465.458 623.897 464.599 623.752 464.506C623.401 464.281 622.931 464.34 622.658 464.654C622.385 464.969 622.378 465.428 622.652 465.742C622.799 465.931 622.885 466.247 622.454 466.677C621.489 467.576 611.754 470.303 595.546 471.123C593.326 471.238 590.997 471.296 588.625 471.297C574.113 471.297 563.492 469.315 562.098 468.16C562.636 467.391 566.392 466.161 570.387 465.465C570.837 465.387 571.142 464.964 571.072 464.514C571.002 464.064 570.586 463.754 570.131 463.813C570.018 463.828 569.636 463.851 569.193 463.878C562.601 464.279 554.984 465.174 554.586 468.56C554.465 469.592 554.773 470.528 555.501 471.343C557.281 473.338 562.398 475.989 586.185 475.989C586.186 475.989 586.186 475.989 586.186 475.989Z" fill="#C5C5C5"/>
<path d="M629.07 469.958C628.74 469.806 628.35 469.883 628.104 470.148C628.069 470.185 624.559 473.845 614.003 475.994C609.962 476.801 602.377 477.21 591.457 477.21C580.518 477.21 570.109 476.781 570.005 476.777C569.57 476.756 569.198 477.071 569.139 477.498C569.08 477.924 569.355 478.326 569.775 478.426C569.884 478.451 580.793 480.999 595.709 480.999C602.863 480.999 609.824 480.42 616.4 479.277C628.662 477.134 629.52 471.072 629.551 470.815C629.593 470.456 629.399 470.11 629.07 469.958Z" fill="#C5C5C5"/>
<path d="M25.6661 313.414C22.5543 315.592 19.0275 318.06 17.1379 322.143C13.8557 329.266 23.8542 337.036 24.2814 337.363C24.3808 337.439 24.4996 337.477 24.6181 337.477C24.744 337.477 24.8701 337.434 24.9725 337.349C25.171 337.184 25.2273 336.903 25.1081 336.675C25.0719 336.606 21.483 329.67 21.6164 324.694C21.6636 322.962 24.1012 320.996 26.682 318.914C29.0456 317.008 31.7248 314.847 33.2925 312.32C36.7339 306.756 32.909 301.285 32.8699 301.231C32.718 301.019 32.4376 300.942 32.1978 301.046C31.9582 301.151 31.8255 301.409 31.8803 301.664C31.888 301.7 32.6319 305.318 30.5621 309.045C29.7091 310.585 27.8356 311.896 25.6661 313.414Z" fill="#C5C5C5"/>
<path d="M38.776 315.868C38.9954 315.703 39.0599 315.403 38.927 315.164C38.7941 314.924 38.5046 314.819 38.2476 314.916C37.719 315.116 25.3027 319.877 25.3027 325.63C25.3027 329.596 27.0055 331.691 28.2489 333.221C28.7366 333.821 29.1577 334.34 29.2963 334.782C29.6869 336.057 28.7616 338.361 28.3725 339.142C28.2604 339.366 28.3153 339.638 28.5061 339.802C28.6092 339.89 28.7379 339.935 28.8669 339.935C28.9766 339.935 29.0868 339.903 29.182 339.837C29.3955 339.689 34.3995 336.169 33.5019 331.928C33.1676 330.316 32.3714 329.139 31.6688 328.099C30.5805 326.489 29.7945 325.326 30.987 323.178C32.3847 320.673 38.7122 315.915 38.776 315.868Z" fill="#C5C5C5"/>
<path d="M6.45654 340.027C6.24369 340.66 6.34416 341.29 6.7469 341.846C8.09289 343.705 12.8604 344.729 20.172 344.729C20.1724 344.729 20.1726 344.729 20.1729 344.729C21.1636 344.729 22.2095 344.71 23.2808 344.671C34.9707 344.255 39.3065 340.632 39.4854 340.478C39.6803 340.31 39.7324 340.03 39.6112 339.804C39.49 339.578 39.2286 339.465 38.9789 339.533C34.862 340.651 27.1742 341.048 21.8419 341.048C15.8752 341.048 12.8366 340.621 12.0927 340.305C12.4744 339.784 14.8288 338.852 17.7463 338.281C18.0251 338.227 18.2168 337.971 18.1892 337.689C18.1616 337.408 17.924 337.193 17.6398 337.193C15.9295 337.194 7.35299 337.33 6.45654 340.027Z" fill="#C5C5C5"/>
<path d="M45.5734 336.295C43.1622 336.295 40.8758 337.497 40.7796 337.548C40.5566 337.667 40.4435 337.921 40.5047 338.166C40.5661 338.41 40.7866 338.581 41.0397 338.581C41.0909 338.582 46.1828 338.623 46.644 341.517C47.0525 344.014 41.8262 348.06 39.7778 349.409C39.5566 349.554 39.4707 349.836 39.5733 350.079C39.6606 350.286 39.8635 350.416 40.0821 350.416C40.1203 350.416 40.1589 350.412 40.1973 350.404C40.6835 350.3 52.0885 347.8 50.8827 341.193C50.147 337.145 47.5893 336.295 45.5734 336.295Z" fill="#C5C5C5"/>
<path d="M37.7523 348.601C37.792 348.389 37.7035 348.174 37.5264 348.05L34.7918 346.145C34.6584 346.052 34.49 346.022 34.3334 346.064C34.3049 346.071 31.4451 346.819 27.2932 347.278C25.6454 347.461 23.7997 347.559 21.9554 347.559C17.8046 347.559 15.0905 347.073 14.6952 346.717C14.6429 346.617 14.6595 346.572 14.6687 346.547C14.7405 346.348 15.1254 346.112 15.3735 346.018C15.6476 345.918 15.7953 345.621 15.71 345.343C15.625 345.065 15.3369 344.901 15.0525 344.969C12.3093 345.628 10.9679 346.549 11.0655 347.707C11.2388 349.759 16.0176 350.813 20.0576 351.092C20.6385 351.131 21.2669 351.151 21.9247 351.151C21.9251 351.151 21.9253 351.151 21.9258 351.151C28.6436 351.151 37.2557 349.054 37.3418 349.033C37.552 348.981 37.7123 348.812 37.7523 348.601Z" fill="#C5C5C5"/>
<path d="M17.1354 353.006C17.3425 352.872 17.4344 352.617 17.3608 352.383C17.2875 352.148 17.0669 351.994 16.8192 351.997C16.4516 352.007 13.2219 352.152 12.9958 354.198C12.9274 354.809 13.1034 355.367 13.5191 355.857C14.6788 357.225 17.8088 358.037 23.0868 358.342C23.7113 358.379 24.3454 358.398 24.9723 358.398C31.6824 358.398 36.2015 356.308 36.3907 356.219C36.5742 356.132 36.6952 355.953 36.706 355.751C36.7168 355.55 36.6157 355.359 36.4426 355.253L32.9866 353.154C32.8667 353.082 32.7232 353.057 32.5863 353.085C32.5645 353.09 30.3702 353.543 27.0586 353.99C26.432 354.075 25.6472 354.118 24.7265 354.118C21.4185 354.118 17.7391 353.58 17.0334 353.228C17.0232 353.162 17.0363 353.079 17.1354 353.006Z" fill="#C5C5C5"/>
<path d="M21.8444 364.708C37.2143 364.695 45.4636 361.976 47.0527 360.265C47.6153 359.659 47.676 359.086 47.6281 358.711C47.51 357.79 46.6668 357.226 46.5709 357.165C46.3402 357.017 46.0306 357.056 45.8507 357.263C45.6712 357.469 45.667 357.771 45.8472 357.977C45.9441 358.101 46.0002 358.309 45.7167 358.591C45.0814 359.181 38.6738 360.973 28.0052 361.511C26.5437 361.587 25.0109 361.625 23.4494 361.626C13.8972 361.626 6.90641 360.324 5.98876 359.565C6.34271 359.06 8.81523 358.252 11.445 357.795C11.7413 357.744 11.9415 357.466 11.8956 357.17C11.8497 356.875 11.5757 356.671 11.2763 356.71C11.2021 356.72 10.9506 356.735 10.6589 356.753C6.31996 357.016 1.30581 357.604 1.04417 359.828C0.964678 360.506 1.16715 361.121 1.64607 361.656C2.81785 362.966 6.18616 364.708 21.8438 364.708C21.8442 364.708 21.8442 364.708 21.8444 364.708Z" fill="#C5C5C5"/>
<path d="M50.0718 360.747C49.8546 360.647 49.598 360.698 49.4357 360.872C49.4129 360.896 47.1023 363.3 40.1544 364.712C37.4944 365.242 32.5014 365.511 25.3142 365.511C18.1134 365.511 11.2618 365.229 11.1933 365.226C10.9072 365.212 10.6623 365.419 10.6234 365.699C10.5844 365.98 10.7659 366.244 11.0423 366.309C11.1136 366.326 18.2943 368 28.1124 368C32.8214 368 37.4036 367.619 41.7322 366.868C49.8031 365.46 50.3681 361.479 50.3882 361.31C50.4163 361.074 50.2886 360.847 50.0718 360.747Z" fill="#C5C5C5"/>
<g clip-path="url(#clip5)">
<path fill-rule="evenodd" clip-rule="evenodd" d="M440 191.8V215C447.227 214.996 454.192 212.293 459.53 207.422C464.868 202.55 468.196 195.861 468.86 188.665C469.524 181.469 467.477 174.284 463.12 168.518C458.764 162.752 452.411 158.82 445.307 157.493L440 162.8H425.5C421.659 162.8 417.976 164.324 415.257 167.037C412.539 169.75 411.008 173.431 411 177.271V203.429C411.008 206.501 412.233 209.444 414.408 211.613C416.582 213.782 419.528 215 422.6 215V209.2C421.062 209.2 419.586 208.589 418.499 207.501C417.411 206.414 416.8 204.938 416.8 203.4C416.8 201.862 417.411 200.387 418.499 199.299C419.586 198.211 421.062 197.6 422.6 197.6H434.2L440 191.8ZM424.05 183.1C422.896 183.1 421.79 182.642 420.974 181.826C420.158 181.01 419.7 179.904 419.7 178.75C419.7 177.596 420.158 176.49 420.974 175.674C421.79 174.858 422.896 174.4 424.05 174.4C425.204 174.4 426.31 174.858 427.126 175.674C427.942 176.49 428.4 177.596 428.4 178.75C428.4 179.904 427.942 181.01 427.126 181.826C426.31 182.642 425.204 183.1 424.05 183.1Z" fill="#C5C5C5"/>
</g>
<g clip-path="url(#clip6)">
<path d="M297.445 219.451C301.393 217.662 301.981 204.04 299.652 200.028C296.609 194.79 282.146 195.842 277.579 199.586C277.055 201.445 277.109 204.82 277.134 207.503H291.469V208.759H277.137C277.137 208.778 270.756 208.799 270.756 208.799C259.753 208.799 259.981 232.695 274.5 232.695C274.5 232.695 275.033 227.403 275.966 224.75C278.847 216.564 290.951 222.397 297.445 219.451ZM282.436 205.564C280.783 205.564 279.445 204.226 279.445 202.57C279.445 200.918 280.783 199.576 282.436 199.576C284.091 199.576 285.43 200.918 285.43 202.57C285.433 204.223 284.091 205.564 282.436 205.564Z" fill="#C5C5C5"/>
<path d="M303 209.302C303 209.302 302.619 214.597 301.686 217.247C298.805 225.43 286.704 219.601 280.207 222.546C276.262 224.335 275.668 237.957 278 241.969C281.04 247.21 295.503 246.158 300.073 242.412C300.598 240.555 300.543 237.18 300.518 234.497H286.18V233.241H300.512C300.512 233.222 307.576 233.201 307.576 233.201C317.717 233.201 318.625 209.302 303 209.302ZM294.701 235.915C296.354 235.915 297.695 237.253 297.695 238.908C297.695 240.561 296.354 241.899 294.701 241.899C293.049 241.899 291.71 240.561 291.71 238.908C291.71 237.253 293.049 235.915 294.701 235.915Z" fill="#C5C5C5"/>
</g>
<path d="M625.876 617.47L611.218 592.816L625.876 568.161L632.941 592.816L625.876 617.47ZM593.253 615.065L574.837 596.799H604.152L618.81 621.454L593.253 615.065ZM593.253 570.491L618.735 564.102L604.077 588.757H574.762L593.253 570.491ZM630.686 552L597.387 560.644L592.426 569.138L582.429 569.063L558 592.816L582.429 616.568L592.426 616.493L597.387 624.987L630.686 633.706L639.631 601.309L634.595 592.891L639.631 584.472L630.686 552Z" fill="#C5C5C5"/>
<path d="M532.996 157.538C534.281 157.538 535.273 157.901 535.973 158.628C536.672 159.336 537.021 160.23 537.021 161.311C537.021 162.373 536.672 163.258 535.973 163.966C535.273 164.655 534.281 165 532.996 165C531.768 165 530.795 164.655 530.077 163.966C529.359 163.277 529 162.392 529 161.311C529 160.23 529.35 159.336 530.049 158.628C530.748 157.901 531.73 157.538 532.996 157.538Z" fill="#C5C5C5"/>
<path d="M578.318 164.693H571.147L552.752 135.822V164.693H545.581V124H552.752L571.204 152.982V124H578.318V164.693Z" fill="#C5C5C5"/>
<path d="M610.914 146.526H593.964V159.047H613.777V164.693H586.793V124H613.578V129.701H593.964V140.937H610.914V146.526Z" fill="#C5C5C5"/>
<path d="M650 129.701H637.132V164.693H630.018V129.701H617.263V124H650V129.701Z" fill="#C5C5C5"/>
<path d="M841.492 464.628C842.936 464.628 844.051 465.035 844.837 465.851C845.623 466.645 846.016 467.648 846.016 468.861C846.016 470.052 845.623 471.045 844.837 471.84C844.051 472.613 842.936 473 841.492 473C840.111 473 839.018 472.613 838.211 471.84C837.404 471.066 837 470.073 837 468.861C837 467.648 837.393 466.645 838.179 465.851C838.965 465.035 840.069 464.628 841.492 464.628Z" fill="#C5C5C5"/>
<path d="M892.432 472.655H884.372L863.697 440.264V472.655H855.637V427H863.697L884.436 459.517V427H892.432V472.655Z" fill="#C5C5C5"/>
<path d="M929.068 452.273H910.018V466.321H932.286V472.655H901.958V427H932.063V433.397H910.018V446.002H929.068V452.273Z" fill="#C5C5C5"/>
<path d="M973 433.397H958.537V472.655H950.54V433.397H936.204V427H973V433.397Z" fill="#C5C5C5"/>
<rect x="713" y="485" width="81" height="81" fill="url(#pattern0)" fill-opacity="0.3"/>
<rect x="818" y="146" width="72" height="72" fill="url(#pattern1)" fill-opacity="0.3"/>
<defs>
<pattern id="pattern0" patternContentUnits="objectBoundingBox" width="1" height="1">
<use xlink:href="#image0" transform="scale(0.002)"/>
</pattern>
<pattern id="pattern1" patternContentUnits="objectBoundingBox" width="1" height="1">
<use xlink:href="#image0" transform="scale(0.002)"/>
</pattern>
<clipPath id="clip0">
<rect width="71.0342" height="71.0342" fill="white" transform="matrix(-1 8.74228e-08 8.74228e-08 1 453.979 375.742)"/>
</clipPath>
<clipPath id="clip1">
<rect width="71.0342" height="71.0342" fill="white" transform="matrix(-1 8.74228e-08 8.74228e-08 1 895.723 588)"/>
</clipPath>
<clipPath id="clip2">
<rect width="71.0342" height="71.0342" fill="white" transform="matrix(-1 8.74228e-08 8.74228e-08 1 782.034 73)"/>
</clipPath>
<clipPath id="clip3">
<rect width="78" height="78" fill="white" transform="translate(276 463)"/>
</clipPath>
<clipPath id="clip4">
<rect width="78" height="78" fill="white" transform="translate(836)"/>
</clipPath>
<clipPath id="clip5">
<rect width="58" height="58" fill="white" transform="matrix(-1 0 0 1 469 157)"/>
</clipPath>
<clipPath id="clip6">
<rect width="52" height="52" fill="white" transform="translate(263 195)"/>
</clipPath>
</defs>
</svg>
